<mxfile host="app.diagrams.net" modified="2023-04-03T16:42:27.510Z" agent="Mozilla/5.0 (Windows NT 10.0; Win64; x64) AppleWebKit/537.36 (KHTML, like Gecko) Chrome/111.0.0.0 Safari/537.36 Edg/111.0.1661.62" etag="dxwc_8-6DBFaP_KIW2vy" version="21.1.4" type="device">
  <diagram name="Page-1" id="GWHF3U4P_9Kv58wqqF53">
    <mxGraphModel dx="2220" dy="2385" grid="1" gridSize="10" guides="1" tooltips="1" connect="1" arrows="1" fold="1" page="1" pageScale="1" pageWidth="850" pageHeight="1100" math="0" shadow="0">
      <root>
        <mxCell id="0" />
        <mxCell id="1" parent="0" />
        <mxCell id="sIlhQkUxUaSAI17grb7L-1" value="" style="rounded=0;whiteSpace=wrap;html=1;" parent="1" vertex="1">
          <mxGeometry x="80" y="20" width="1380" height="750" as="geometry" />
        </mxCell>
        <mxCell id="Zqn0KX4fgnu4LK0J32pH-1" value="" style="ellipse;html=1;shape=startState;fillColor=#000000;strokeColor=#ff0000;" parent="1" vertex="1">
          <mxGeometry x="170" y="140" width="40" height="40" as="geometry" />
        </mxCell>
        <mxCell id="Zqn0KX4fgnu4LK0J32pH-2" value="" style="edgeStyle=orthogonalEdgeStyle;html=1;verticalAlign=bottom;endArrow=open;endSize=8;strokeColor=#ff0000;rounded=0;entryX=0.5;entryY=0;entryDx=0;entryDy=0;" parent="1" source="Zqn0KX4fgnu4LK0J32pH-1" edge="1">
          <mxGeometry relative="1" as="geometry">
            <mxPoint x="190" y="260" as="targetPoint" />
          </mxGeometry>
        </mxCell>
        <mxCell id="Zqn0KX4fgnu4LK0J32pH-5" value="" style="edgeStyle=orthogonalEdgeStyle;html=1;align=left;verticalAlign=bottom;endArrow=open;endSize=8;strokeColor=#ff0000;rounded=0;" parent="1" edge="1">
          <mxGeometry x="-1" relative="1" as="geometry">
            <mxPoint x="320" y="290" as="targetPoint" />
            <mxPoint x="240" y="290" as="sourcePoint" />
          </mxGeometry>
        </mxCell>
        <mxCell id="Zqn0KX4fgnu4LK0J32pH-8" value="SELECT CLOTHING&lt;br&gt;TYPES" style="rounded=1;whiteSpace=wrap;html=1;arcSize=40;" parent="1" vertex="1">
          <mxGeometry x="320" y="265" width="120" height="50" as="geometry" />
        </mxCell>
        <mxCell id="Zqn0KX4fgnu4LK0J32pH-11" value="" style="edgeStyle=orthogonalEdgeStyle;html=1;align=left;verticalAlign=bottom;endArrow=open;endSize=8;strokeColor=#ff0000;rounded=0;" parent="1" edge="1">
          <mxGeometry x="-1" relative="1" as="geometry">
            <mxPoint x="520" y="289.5" as="targetPoint" />
            <mxPoint x="440" y="289.5" as="sourcePoint" />
          </mxGeometry>
        </mxCell>
        <mxCell id="Zqn0KX4fgnu4LK0J32pH-20" value="ADD TO&lt;br&gt;WISHLIST" style="rounded=1;whiteSpace=wrap;html=1;arcSize=40;" parent="1" vertex="1">
          <mxGeometry x="850.32" y="520" width="120" height="50" as="geometry" />
        </mxCell>
        <mxCell id="Zqn0KX4fgnu4LK0J32pH-26" value="ADD TO&lt;br&gt;CART" style="rounded=1;whiteSpace=wrap;html=1;arcSize=40;" parent="1" vertex="1">
          <mxGeometry x="990" y="520" width="120" height="50" as="geometry" />
        </mxCell>
        <mxCell id="Zqn0KX4fgnu4LK0J32pH-30" value="UPDATE DATABASE" style="rounded=1;whiteSpace=wrap;html=1;arcSize=40;" parent="1" vertex="1">
          <mxGeometry x="1310" y="265" width="120" height="50" as="geometry" />
        </mxCell>
        <mxCell id="Zqn0KX4fgnu4LK0J32pH-31" value="" style="ellipse;html=1;shape=endState;fillColor=#000000;strokeColor=#ff0000;" parent="1" vertex="1">
          <mxGeometry x="1347" y="391" width="40" height="40" as="geometry" />
        </mxCell>
        <mxCell id="Zqn0KX4fgnu4LK0J32pH-32" value="" style="edgeStyle=orthogonalEdgeStyle;html=1;verticalAlign=bottom;endArrow=open;endSize=8;strokeColor=#ff0000;rounded=0;entryX=0.5;entryY=0;entryDx=0;entryDy=0;" parent="1" edge="1">
          <mxGeometry relative="1" as="geometry">
            <mxPoint x="1366.5" y="396" as="targetPoint" />
            <mxPoint x="1366.5" y="316" as="sourcePoint" />
          </mxGeometry>
        </mxCell>
        <mxCell id="Zqn0KX4fgnu4LK0J32pH-34" value="" style="endArrow=none;html=1;rounded=0;entryX=0.8;entryY=0;entryDx=0;entryDy=0;entryPerimeter=0;exitX=0.805;exitY=1.001;exitDx=0;exitDy=0;exitPerimeter=0;" parent="1" source="sIlhQkUxUaSAI17grb7L-1" target="sIlhQkUxUaSAI17grb7L-1" edge="1">
          <mxGeometry width="50" height="50" relative="1" as="geometry">
            <mxPoint x="1220" y="780" as="sourcePoint" />
            <mxPoint x="1220" y="40" as="targetPoint" />
          </mxGeometry>
        </mxCell>
        <mxCell id="Zqn0KX4fgnu4LK0J32pH-43" value="" style="endArrow=none;html=1;rounded=0;" parent="1" edge="1">
          <mxGeometry width="50" height="50" relative="1" as="geometry">
            <mxPoint x="80" y="98" as="sourcePoint" />
            <mxPoint x="860" y="98" as="targetPoint" />
          </mxGeometry>
        </mxCell>
        <mxCell id="Zqn0KX4fgnu4LK0J32pH-44" value="" style="endArrow=none;html=1;rounded=0;exitX=1;exitY=0.104;exitDx=0;exitDy=0;exitPerimeter=0;" parent="1" edge="1" source="sIlhQkUxUaSAI17grb7L-1">
          <mxGeometry width="50" height="50" relative="1" as="geometry">
            <mxPoint x="1450" y="100" as="sourcePoint" />
            <mxPoint x="860" y="98" as="targetPoint" />
          </mxGeometry>
        </mxCell>
        <mxCell id="Zqn0KX4fgnu4LK0J32pH-45" value="&lt;font size=&quot;1&quot; style=&quot;&quot;&gt;&lt;b style=&quot;font-size: 30px;&quot;&gt;USER&lt;/b&gt;&lt;/font&gt;" style="text;html=1;strokeColor=none;fillColor=none;align=center;verticalAlign=middle;whiteSpace=wrap;rounded=0;" parent="1" vertex="1">
          <mxGeometry x="620" y="50" width="60" height="30" as="geometry" />
        </mxCell>
        <mxCell id="Zqn0KX4fgnu4LK0J32pH-46" value="&lt;font size=&quot;1&quot; style=&quot;&quot;&gt;&lt;b style=&quot;font-size: 30px;&quot;&gt;SYSTEM&lt;/b&gt;&lt;/font&gt;" style="text;html=1;strokeColor=none;fillColor=none;align=center;verticalAlign=middle;whiteSpace=wrap;rounded=0;" parent="1" vertex="1">
          <mxGeometry x="1310" y="50" width="60" height="30" as="geometry" />
        </mxCell>
        <mxCell id="cFAaUY9a_34qXWDC6dkQ-1" value="&lt;font style=&quot;font-size: 38px;&quot; face=&quot;Comic Sans MS&quot;&gt;&lt;b&gt;Attire Selection Activity Diagram&lt;/b&gt;&lt;/font&gt;" style="rounded=0;whiteSpace=wrap;html=1;" parent="1" vertex="1">
          <mxGeometry x="480" y="-120" width="673" height="90" as="geometry" />
        </mxCell>
        <mxCell id="cnyzaA_0gitvo--hsMwh-2" value="&lt;span style=&quot;font-size: 13px;&quot;&gt;SELECT&lt;br&gt;GENDER&lt;br&gt;&lt;/span&gt;" style="rounded=1;whiteSpace=wrap;html=1;arcSize=40;" parent="1" vertex="1">
          <mxGeometry x="130" y="264" width="120" height="50" as="geometry" />
        </mxCell>
        <mxCell id="Tmhy1Yp7f0Me61pnj40--1" value="SELECT&lt;br&gt;COLOUR" style="rounded=1;whiteSpace=wrap;html=1;arcSize=40;" parent="1" vertex="1">
          <mxGeometry x="520" y="265" width="120" height="50" as="geometry" />
        </mxCell>
        <mxCell id="Tmhy1Yp7f0Me61pnj40--2" value="SELECT SIZE" style="rounded=1;whiteSpace=wrap;html=1;arcSize=40;" parent="1" vertex="1">
          <mxGeometry x="718" y="265" width="120" height="50" as="geometry" />
        </mxCell>
        <mxCell id="Tmhy1Yp7f0Me61pnj40--3" value="" style="edgeStyle=orthogonalEdgeStyle;html=1;align=left;verticalAlign=bottom;endArrow=open;endSize=8;strokeColor=#ff0000;rounded=0;" parent="1" edge="1">
          <mxGeometry x="-1" relative="1" as="geometry">
            <mxPoint x="720" y="290" as="targetPoint" />
            <mxPoint x="640" y="290" as="sourcePoint" />
          </mxGeometry>
        </mxCell>
        <mxCell id="z8MS9zL3BtN6AbnB1U16-1" value="&lt;span style=&quot;color: rgba(0 , 0 , 0 , 0) ; font-family: monospace ; font-size: 0px&quot;&gt;%3CmxGraphModel%3E%3Croot%3E%3CmxCell%20id%3D%220%22%2F%3E%3CmxCell%20id%3D%221%22%20parent%3D%220%22%2F%3E%3CmxCell%20id%3D%222%22%20value%3D%22SELECT%20SIZE%22%20style%3D%22rounded%3D1%3BwhiteSpace%3Dwrap%3Bhtml%3D1%3BarcSize%3D40%3B%22%20vertex%3D%221%22%20parent%3D%221%22%3E%3CmxGeometry%20x%3D%22718%22%20y%3D%22265%22%20width%3D%22120%22%20height%3D%2250%22%20as%3D%22geometry%22%2F%3E%3C%2FmxCell%3E%3C%2Froot%3E%3C%2FmxGraphModel%3E&lt;/span&gt;SELECT&lt;br&gt;QUANTITY" style="rounded=1;whiteSpace=wrap;html=1;arcSize=40;" parent="1" vertex="1">
          <mxGeometry x="916" y="265" width="120" height="50" as="geometry" />
        </mxCell>
        <mxCell id="z8MS9zL3BtN6AbnB1U16-2" value="" style="html=1;points=[];perimeter=orthogonalPerimeter;fillColor=#000000;strokeColor=none;rotation=90;" parent="1" vertex="1">
          <mxGeometry x="965.32" y="305.94" width="5" height="228.13" as="geometry" />
        </mxCell>
        <mxCell id="z8MS9zL3BtN6AbnB1U16-7" value="" style="strokeColor=#ff0000;rounded=0;endArrow=classic;html=1;exitX=0.5;exitY=1;exitDx=0;exitDy=0;" parent="1" edge="1">
          <mxGeometry width="50" height="50" relative="1" as="geometry">
            <mxPoint x="973" y="315" as="sourcePoint" />
            <mxPoint x="973" y="417.5050000000001" as="targetPoint" />
          </mxGeometry>
        </mxCell>
        <mxCell id="z8MS9zL3BtN6AbnB1U16-9" value="" style="strokeColor=#ff0000;rounded=0;endArrow=classic;html=1;exitX=0.5;exitY=0.752;exitDx=0;exitDy=0;entryX=0.5;entryY=0;entryDx=0;entryDy=0;exitPerimeter=0;" parent="1" source="z8MS9zL3BtN6AbnB1U16-2" target="Zqn0KX4fgnu4LK0J32pH-20" edge="1">
          <mxGeometry width="50" height="50" relative="1" as="geometry">
            <mxPoint x="978" y="335" as="sourcePoint" />
            <mxPoint x="979.1200000000001" y="440" as="targetPoint" />
          </mxGeometry>
        </mxCell>
        <mxCell id="z8MS9zL3BtN6AbnB1U16-10" value="" style="strokeColor=#ff0000;rounded=0;endArrow=classic;html=1;entryX=0.5;entryY=0;entryDx=0;entryDy=0;" parent="1" target="Zqn0KX4fgnu4LK0J32pH-26" edge="1">
          <mxGeometry width="50" height="50" relative="1" as="geometry">
            <mxPoint x="1050" y="420" as="sourcePoint" />
            <mxPoint x="989.1200000000001" y="450" as="targetPoint" />
          </mxGeometry>
        </mxCell>
        <mxCell id="z8MS9zL3BtN6AbnB1U16-11" value="" style="html=1;points=[];perimeter=orthogonalPerimeter;fillColor=#000000;strokeColor=none;rotation=90;" parent="1" vertex="1">
          <mxGeometry x="980" y="507.75" width="5" height="239" as="geometry" />
        </mxCell>
        <mxCell id="z8MS9zL3BtN6AbnB1U16-12" value="" style="strokeColor=#ff0000;rounded=0;endArrow=classic;html=1;exitX=1.029;exitY=0.509;exitDx=0;exitDy=0;exitPerimeter=0;entryX=0.048;entryY=0.808;entryDx=0;entryDy=0;entryPerimeter=0;" parent="1" edge="1">
          <mxGeometry width="50" height="50" relative="1" as="geometry">
            <mxPoint x="909.7175000000002" y="570.005" as="sourcePoint" />
            <mxPoint x="909.8879999999999" y="624.9899999999998" as="targetPoint" />
          </mxGeometry>
        </mxCell>
        <mxCell id="z8MS9zL3BtN6AbnB1U16-14" value="" style="strokeColor=#ff0000;rounded=0;endArrow=classic;html=1;exitX=0.917;exitY=0.533;exitDx=0;exitDy=0;entryX=0;entryY=0.5;entryDx=0;entryDy=0;exitPerimeter=0;" parent="1" source="z8MS9zL3BtN6AbnB1U16-11" target="Zqn0KX4fgnu4LK0J32pH-30" edge="1">
          <mxGeometry width="50" height="50" relative="1" as="geometry">
            <mxPoint x="1189.9975" y="431" as="sourcePoint" />
            <mxPoint x="1191.77" y="528" as="targetPoint" />
            <Array as="points">
              <mxPoint x="975" y="670" />
              <mxPoint x="1250" y="670" />
              <mxPoint x="1250" y="290" />
            </Array>
          </mxGeometry>
        </mxCell>
        <mxCell id="z8MS9zL3BtN6AbnB1U16-13" value="" style="strokeColor=#ff0000;rounded=0;endArrow=classic;html=1;entryX=0.091;entryY=0.199;entryDx=0;entryDy=0;entryPerimeter=0;exitX=0.5;exitY=1;exitDx=0;exitDy=0;" parent="1" edge="1" source="Zqn0KX4fgnu4LK0J32pH-26">
          <mxGeometry width="50" height="50" relative="1" as="geometry">
            <mxPoint x="1051" y="580" as="sourcePoint" />
            <mxPoint x="1051.4389999999999" y="625.2049999999999" as="targetPoint" />
          </mxGeometry>
        </mxCell>
        <mxCell id="PUibTTXmY_X5KB827FPp-1" value="" style="edgeStyle=orthogonalEdgeStyle;html=1;align=left;verticalAlign=bottom;endArrow=open;endSize=8;strokeColor=#ff0000;rounded=0;" edge="1" parent="1">
          <mxGeometry x="-1" relative="1" as="geometry">
            <mxPoint x="917" y="289.5" as="targetPoint" />
            <mxPoint x="837" y="289.5" as="sourcePoint" />
          </mxGeometry>
        </mxCell>
      </root>
    </mxGraphModel>
  </diagram>
</mxfile>
